<svg xmlns="http://www.w3.org/2000/svg" xml:space="preserve" width="655.359" height="655.359" style="shape-rendering:geometricPrecision;text-rendering:geometricPrecision;image-rendering:optimizeQuality;fill-rule:evenodd;clip-rule:evenodd" viewBox="0 0 6.827 6.827"><defs><style>.fil1{fill-rule:nonzero;fill:#b5b5b6}</style></defs><g id="Layer_x0020_1"><path d="M.854 5.035a.97.97 0 0 1 .794-.983.972.972 0 0 1 .504.041l.97-.97.971-.971A.972.972 0 0 1 4.651.92a.97.97 0 0 1 .392-.066L5.04.961l.004-.107a.107.107 0 0 1 .07.183l-.16.16-.195.195a.107.107 0 0 1 .003.01l.069.257.071.266.01.003.257.069.266.071.195-.195.162-.161a.107.107 0 0 1 .182.08.97.97 0 0 1-.794.983.972.972 0 0 1-.504-.042l-.971.97-.97.972a.972.972 0 0 1-.559 1.232.97.97 0 0 1-.392.065l.004-.106-.004.107a.107.107 0 0 1-.07-.183l.16-.16.195-.196v-.002l-.071-.264-.07-.263a.11.11 0 0 1-.002-.004L1.66 4.83l-.262-.07.027-.103-.028.103-.004-.002-.195.195-.16.162a.107.107 0 0 1-.183-.08z" style="fill:#a5a5a6;fill-rule:nonzero"/><path class="fil1" d="M.854 5.035a.97.97 0 0 1 .794-.983.973.973 0 0 1 .453.025c.37.177.638.534.69.958a.974.974 0 0 1-.284.655.965.965 0 0 1-.724.282l.004-.106-.004.107a.107.107 0 0 1-.07-.183l.16-.16.195-.196v-.002l-.071-.264-.07-.263a.11.11 0 0 1-.002-.004L1.66 4.83l-.262-.07.027-.103-.028.103-.004-.002-.195.195-.16.162a.107.107 0 0 1-.183-.08zm3.196-3.05a.974.974 0 0 1 .27-.848.965.965 0 0 1 .723-.283L5.04.961l.004-.107a.107.107 0 0 1 .07.183l-.16.16-.195.195a.107.107 0 0 1 .003.01l.069.257.071.266.01.003.257.069.266.071.195-.195.162-.161a.107.107 0 0 1 .182.08.97.97 0 0 1-.794.983.974.974 0 0 1-.328.004 1.23 1.23 0 0 1-.801-.794z"/><path d="m1.391 4.752.003.004zm-.071-.07v-.001zm4.116-2.608-.004-.003.004.003-.026.098v-.003l.026-.095zm0-.001zm-.538-.148-.001.005zm-.001.005zm0 0-.02.1z" style="fill:#414141;fill-rule:nonzero"/><path class="fil1" d="M4.298 2.609a.058.058 0 0 0-.082-.083L2.493 4.25a.058.058 0 0 0 .082.083L4.298 2.61z"/></g><path style="fill:none" d="M0 0h6.827v6.827H0z"/></svg>