<svg xmlns="http://www.w3.org/2000/svg" xml:space="preserve" width="16" height="16"
  style="shape-rendering:geometricPrecision;text-rendering:geometricPrecision;image-rendering:optimizeQuality;fill-rule:evenodd;clip-rule:evenodd"><path d="m1169.59 486.646 91.377-135.469c25.394-37.651 60.89-64.788 100.595-80.254 40.703-15.856 85.762-19.334 128.782-9.198l43.328 10.21-24.846 36.834-115.416 171.115 52.47 129.563 140.358.547 115.442-171.147 24.835-36.817 25.69 36.337c25.516 36.092 39.172 79.204 39.72 122.943.531 42.56-11.326 85.598-36.711 123.235l-91.377 135.474c-33.283 49.343-83.746 80.59-138.236 91.184-48.247 9.377-99.682 2.496-145.132-22.423l-478.197 478.197c10.272 28.546 14.543 59.014 12.388 89.265-2.6 36.507-14.446 72.779-36.253 105.11l-91.378 135.47c-25.394 37.652-60.888 64.786-100.595 80.253-40.704 15.856-85.762 19.335-128.782 9.198l-43.328-10.21 24.846-36.834 115.416-171.115-52.47-129.563-140.36-.55-115.44 171.15-24.833 36.819-25.69-36.338c-25.518-36.092-39.173-79.206-39.72-122.943-.533-42.562 11.324-85.6 36.71-123.236l91.38-135.473.005-.006c33.28-49.341 83.744-80.586 138.23-91.178 48.245-9.377 99.679-2.497 145.129 22.42l478.198-478.197c-10.272-28.547-14.542-59.013-12.388-89.265 2.601-36.505 14.445-72.776 36.252-105.109z" style="fill:#bebebe;fill-rule:nonzero"/><path d="M1379.68 889.567 902.277 1366.97 667.59 1159.16l477.83-477.83z" style="fill:#6a6a6a;fill-rule:nonzero"/><rect width="196.875" height="518.75" rx="46.101" ry="46.101" style="fill:#565656" transform="scale(-.96007) rotate(45 1116.879 -1809.531)"/><path d="m1434.75 581.971 11.127 27.477 140.36.547 115.441-171.147 24.835-36.817 25.69 36.336c25.516 36.092 39.172 79.205 39.72 122.943.531 42.56-11.326 85.598-36.711 123.235l-91.378 135.474c-33.282 49.343-83.746 80.592-138.236 91.185-48.246 9.377-99.681 2.496-145.131-22.423l-478.198 478.197c10.273 28.546 14.543 59.014 12.39 89.265-2.602 36.507-14.447 72.779-36.254 105.11l-91.378 135.47c-25.394 37.651-60.888 64.786-100.595 80.253-40.704 15.856-85.762 19.334-128.782 9.198l-43.328-10.21 24.846-36.835 115.416-171.115-37.844-93.446 818.01-892.698z" style="fill:#adadae;fill-rule:nonzero"/><path d="M1379.68 889.567 902.277 1366.97l-103.15-91.34L1254.7 778.468z" style="fill:#626263;fill-rule:nonzero"/><path d="m881.781 1234.46-23.444-23.445 336.79-367.543 38.82 38.82c17.93 17.93 17.93 47.268 0 65.198l-286.97 286.97c-17.928 17.929-47.266 17.929-65.196 0z" style="fill:#4c4c4c"/><path d="M0 0h2048v2048H0z" style="fill:none"/></svg>